<svg width="167" height="28" viewBox="0 0 167 28" fill="none" xmlns="http://www.w3.org/2000/svg">
<path d="M4.04052 5.63206C4.64719 5.63206 5.12385 5.48039 5.47052 5.17706C5.82585 4.87372 6.00352 4.48372 6.00352 4.00706V3.98106C6.00352 3.44372 5.82585 3.04072 5.47052 2.77206C5.11519 2.49472 4.63852 2.35606 4.04052 2.35606H2.18152V5.63206H4.04052ZM0.58252 0.900057H4.17052C4.69919 0.900057 5.17585 0.973724 5.60052 1.12106C6.03385 1.25972 6.39785 1.46339 6.69252 1.73206C6.99585 2.00072 7.22552 2.32139 7.38152 2.69406C7.54619 3.06672 7.62852 3.48272 7.62852 3.94206V3.96806C7.62852 4.47939 7.53319 4.93006 7.34252 5.32006C7.15185 5.70139 6.89185 6.02206 6.56252 6.28206C6.23319 6.54206 5.84752 6.74139 5.40552 6.88006C4.96352 7.01006 4.49119 7.07506 3.98852 7.07506H2.18152V10.0001H0.58252V0.900057Z" fill="#BDA4EF"/>
<path d="M12.3731 8.79106C12.6938 8.79106 12.9798 8.73472 13.2311 8.62206C13.4911 8.50072 13.7121 8.34039 13.8941 8.14106C14.0761 7.94172 14.2148 7.71206 14.3101 7.45206C14.4054 7.18339 14.4531 6.90172 14.4531 6.60706V6.58106C14.4531 6.27772 14.4011 5.99172 14.2971 5.72306C14.1931 5.45439 14.0458 5.22039 13.8551 5.02106C13.6731 4.82172 13.4521 4.66572 13.1921 4.55306C12.9408 4.43172 12.6591 4.37106 12.3471 4.37106C12.0351 4.37106 11.7491 4.43172 11.4891 4.55306C11.2378 4.66572 11.0211 4.82172 10.8391 5.02106C10.6571 5.21172 10.5184 5.44139 10.4231 5.71006C10.3278 5.97872 10.2801 6.26039 10.2801 6.55506V6.58106C10.2801 6.88439 10.3321 7.17039 10.4361 7.43906C10.5401 7.69906 10.6831 7.93306 10.8651 8.14106C11.0558 8.34039 11.2768 8.50072 11.5281 8.62206C11.7881 8.73472 12.0698 8.79106 12.3731 8.79106ZM12.3471 10.1561C11.8271 10.1561 11.3418 10.0651 10.8911 9.88306C10.4491 9.69239 10.0634 9.43672 9.73411 9.11606C9.41345 8.79539 9.16211 8.41839 8.98011 7.98506C8.79811 7.55172 8.70711 7.09239 8.70711 6.60706V6.58106C8.70711 6.08706 8.79811 5.62339 8.98011 5.19006C9.17078 4.75672 9.42645 4.37972 9.74711 4.05906C10.0764 3.72972 10.4621 3.46972 10.9041 3.27906C11.3548 3.08839 11.8444 2.99306 12.3731 2.99306C12.9018 2.99306 13.3871 3.08839 13.8291 3.27906C14.2798 3.46106 14.6654 3.71672 14.9861 4.04606C15.3154 4.36672 15.5711 4.74372 15.7531 5.17706C15.9351 5.60172 16.0261 6.06106 16.0261 6.55506V6.58106C16.0261 7.06639 15.9308 7.52572 15.7401 7.95906C15.5581 8.39239 15.3024 8.77372 14.9731 9.10306C14.6524 9.42372 14.2668 9.67939 13.8161 9.87006C13.3654 10.0607 12.8758 10.1561 12.3471 10.1561Z" fill="#BDA4EF"/>
<path d="M17.6281 3.13606H19.2011V4.68306C19.4177 4.16306 19.7254 3.74706 20.1241 3.43506C20.5227 3.12306 21.0254 2.98006 21.6321 3.00606V4.67006H21.5411C21.1944 4.67006 20.8781 4.72639 20.5921 4.83906C20.3061 4.95172 20.0591 5.12072 19.8511 5.34606C19.6431 5.57139 19.4827 5.85739 19.3701 6.20406C19.2574 6.54206 19.2011 6.93639 19.2011 7.38706V10.0001H17.6281V3.13606Z" fill="#BDA4EF"/>
<path d="M26.2092 8.77806C26.4692 8.77806 26.7205 8.72606 26.9632 8.62206C27.2058 8.51806 27.4182 8.37072 27.6002 8.18006C27.7822 7.98072 27.9252 7.74672 28.0292 7.47806C28.1418 7.20939 28.1982 6.91039 28.1982 6.58106V6.55506C28.1982 6.22572 28.1418 5.92672 28.0292 5.65806C27.9252 5.38072 27.7822 5.14672 27.6002 4.95606C27.4182 4.76539 27.2058 4.61806 26.9632 4.51406C26.7205 4.41006 26.4692 4.35806 26.2092 4.35806C25.9405 4.35806 25.6848 4.41006 25.4422 4.51406C25.2082 4.60939 25.0002 4.75239 24.8182 4.94306C24.6362 5.13372 24.4932 5.36772 24.3892 5.64506C24.2852 5.91372 24.2332 6.21706 24.2332 6.55506V6.58106C24.2332 6.91039 24.2852 7.21372 24.3892 7.49106C24.4932 7.75972 24.6362 7.98939 24.8182 8.18006C25.0002 8.37072 25.2082 8.51806 25.4422 8.62206C25.6848 8.72606 25.9405 8.77806 26.2092 8.77806ZM28.1722 8.85606C27.9208 9.21139 27.6045 9.51472 27.2232 9.76606C26.8505 10.0174 26.3868 10.1431 25.8322 10.1431C25.4248 10.1431 25.0305 10.0651 24.6492 9.90906C24.2678 9.75306 23.9298 9.52339 23.6352 9.22006C23.3405 8.91672 23.1022 8.54406 22.9202 8.10206C22.7382 7.66006 22.6472 7.15306 22.6472 6.58106V6.55506C22.6472 5.98306 22.7338 5.47606 22.9072 5.03406C23.0892 4.59206 23.3275 4.21939 23.6222 3.91606C23.9168 3.61272 24.2548 3.38306 24.6362 3.22706C25.0262 3.07106 25.4248 2.99306 25.8322 2.99306C26.3955 2.99306 26.8635 3.11439 27.2362 3.35706C27.6088 3.59972 27.9208 3.88139 28.1722 4.20206V3.13606H29.7452V12.0801H28.1722V8.85606Z" fill="#BDA4EF"/>
<path d="M34.0732 10.1431C33.2932 10.1431 32.6908 9.90472 32.2662 9.42806C31.8415 8.95139 31.6292 8.31006 31.6292 7.50406V3.13606H33.2022V7.03606C33.2022 7.57339 33.3278 7.98939 33.5792 8.28406C33.8392 8.57006 34.2032 8.71306 34.6712 8.71306C35.1305 8.71306 35.5032 8.56572 35.7892 8.27106C36.0752 7.96772 36.2182 7.54739 36.2182 7.01006V3.13606H37.7912V10.0001H36.2182V8.93406C35.9928 9.26339 35.7112 9.54939 35.3732 9.79206C35.0352 10.0261 34.6018 10.1431 34.0732 10.1431Z" fill="#BDA4EF"/>
<path d="M44.4747 6.08706C44.4487 5.83572 44.3923 5.60172 44.3057 5.38506C44.219 5.15972 44.102 4.96906 43.9547 4.81306C43.8074 4.64839 43.6297 4.51839 43.4217 4.42306C43.2224 4.32772 42.9927 4.28006 42.7327 4.28006C42.2474 4.28006 41.8444 4.44906 41.5237 4.78706C41.2117 5.11639 41.021 5.54972 40.9517 6.08706H44.4747ZM42.9147 10.1561C42.4207 10.1561 41.957 10.0694 41.5237 9.89606C41.099 9.72272 40.7264 9.48006 40.4057 9.16806C40.0937 8.85606 39.8467 8.48339 39.6647 8.05006C39.4827 7.60806 39.3917 7.12272 39.3917 6.59406V6.56806C39.3917 6.07406 39.474 5.61039 39.6387 5.17706C39.8034 4.74372 40.033 4.36672 40.3277 4.04606C40.631 3.71672 40.9864 3.46106 41.3937 3.27906C41.801 3.08839 42.2517 2.99306 42.7457 2.99306C43.2917 2.99306 43.7683 3.09272 44.1757 3.29206C44.5917 3.49139 44.934 3.76006 45.2027 4.09806C45.48 4.43606 45.688 4.83039 45.8267 5.28106C45.9653 5.72306 46.0347 6.19106 46.0347 6.68506C46.0347 6.75439 46.0303 6.82806 46.0217 6.90606C46.0217 6.97539 46.0174 7.04906 46.0087 7.12706H40.9647C41.0514 7.69039 41.2724 8.12372 41.6277 8.42706C41.9917 8.72172 42.4294 8.86906 42.9407 8.86906C43.3307 8.86906 43.6687 8.79972 43.9547 8.66106C44.2407 8.52239 44.5223 8.31872 44.7997 8.05006L45.7227 8.86906C45.3933 9.25906 44.999 9.57106 44.5397 9.80506C44.089 10.0391 43.5474 10.1561 42.9147 10.1561Z" fill="#BDA4EF"/>
<path d="M53.8648 10.1301C53.3708 10.1301 52.8682 10.0434 52.3568 9.87006C51.8542 9.69672 51.3862 9.44106 50.9528 9.10306L51.6548 8.03706C52.0275 8.31439 52.4045 8.52672 52.7858 8.67406C53.1758 8.81272 53.5485 8.88206 53.9038 8.88206C54.2418 8.88206 54.5018 8.81706 54.6838 8.68706C54.8745 8.54839 54.9698 8.36639 54.9698 8.14106V8.11506C54.9698 7.98506 54.9265 7.87239 54.8398 7.77706C54.7618 7.68172 54.6492 7.59939 54.5018 7.53006C54.3632 7.46072 54.1985 7.39572 54.0078 7.33506C53.8258 7.27439 53.6352 7.21372 53.4358 7.15306C53.1845 7.08372 52.9288 7.00139 52.6688 6.90606C52.4175 6.81072 52.1878 6.68939 51.9798 6.54206C51.7805 6.38606 51.6158 6.19539 51.4858 5.97006C51.3558 5.74472 51.2908 5.46739 51.2908 5.13806V5.11206C51.2908 4.79139 51.3515 4.50106 51.4728 4.24106C51.6028 3.98106 51.7762 3.76006 51.9928 3.57806C52.2182 3.39606 52.4782 3.25739 52.7728 3.16206C53.0762 3.06672 53.3968 3.01906 53.7348 3.01906C54.1682 3.01906 54.6058 3.08839 55.0478 3.22706C55.4898 3.36572 55.8928 3.55639 56.2568 3.79906L55.6328 4.91706C55.3035 4.71772 54.9698 4.56172 54.6318 4.44906C54.2938 4.32772 53.9818 4.26706 53.6958 4.26706C53.3925 4.26706 53.1542 4.33206 52.9808 4.46206C52.8162 4.59206 52.7338 4.75672 52.7338 4.95606V4.98206C52.7338 5.10339 52.7772 5.21172 52.8638 5.30706C52.9505 5.39372 53.0632 5.47606 53.2018 5.55406C53.3492 5.62339 53.5138 5.69272 53.6958 5.76206C53.8865 5.82272 54.0815 5.88339 54.2808 5.94406C54.5322 6.02206 54.7835 6.11306 55.0348 6.21706C55.2862 6.32106 55.5115 6.45106 55.7108 6.60706C55.9188 6.75439 56.0878 6.93639 56.2178 7.15306C56.3478 7.36972 56.4128 7.63406 56.4128 7.94606V7.97206C56.4128 8.33606 56.3478 8.65239 56.2178 8.92106C56.0878 9.18972 55.9058 9.41506 55.6718 9.59706C55.4465 9.77039 55.1778 9.90472 54.8658 10.0001C54.5538 10.0867 54.2202 10.1301 53.8648 10.1301Z" fill="#BDA4EF"/>
<path d="M62.7178 6.08706C62.6918 5.83572 62.6355 5.60172 62.5488 5.38506C62.4622 5.15972 62.3452 4.96906 62.1978 4.81306C62.0505 4.64839 61.8728 4.51839 61.6648 4.42306C61.4655 4.32772 61.2358 4.28006 60.9758 4.28006C60.4905 4.28006 60.0875 4.44906 59.7668 4.78706C59.4548 5.11639 59.2642 5.54972 59.1948 6.08706H62.7178ZM61.1578 10.1561C60.6638 10.1561 60.2002 10.0694 59.7668 9.89606C59.3422 9.72272 58.9695 9.48006 58.6488 9.16806C58.3368 8.85606 58.0898 8.48339 57.9078 8.05006C57.7258 7.60806 57.6348 7.12272 57.6348 6.59406V6.56806C57.6348 6.07406 57.7172 5.61039 57.8818 5.17706C58.0465 4.74372 58.2762 4.36672 58.5708 4.04606C58.8742 3.71672 59.2295 3.46106 59.6368 3.27906C60.0442 3.08839 60.4948 2.99306 60.9888 2.99306C61.5348 2.99306 62.0115 3.09272 62.4188 3.29206C62.8348 3.49139 63.1772 3.76006 63.4458 4.09806C63.7232 4.43606 63.9312 4.83039 64.0698 5.28106C64.2085 5.72306 64.2778 6.19106 64.2778 6.68506C64.2778 6.75439 64.2735 6.82806 64.2648 6.90606C64.2648 6.97539 64.2605 7.04906 64.2519 7.12706H59.2078C59.2945 7.69039 59.5155 8.12372 59.8708 8.42706C60.2348 8.72172 60.6725 8.86906 61.1838 8.86906C61.5738 8.86906 61.9118 8.79972 62.1978 8.66106C62.4838 8.52239 62.7655 8.31872 63.0428 8.05006L63.9658 8.86906C63.6365 9.25906 63.2422 9.57106 62.7828 9.80506C62.3322 10.0391 61.7905 10.1561 61.1578 10.1561Z" fill="#BDA4EF"/>
<path d="M65.8576 3.13606H67.4305V4.68306C67.6472 4.16306 67.9549 3.74706 68.3536 3.43506C68.7522 3.12306 69.2549 2.98006 69.8615 3.00606V4.67006H69.7706C69.4239 4.67006 69.1075 4.72639 68.8215 4.83906C68.5355 4.95172 68.2886 5.12072 68.0806 5.34606C67.8726 5.57139 67.7122 5.85739 67.5995 6.20406C67.4869 6.54206 67.4305 6.93639 67.4305 7.38706V10.0001H65.8576V3.13606Z" fill="#BDA4EF"/>
<path d="M74.7871 12.1191C74.6398 12.1191 74.5055 12.1104 74.3841 12.0931C74.2715 12.0844 74.1545 12.0714 74.0331 12.0541V10.7931C74.1891 10.8191 74.3365 10.8321 74.4751 10.8321C74.7005 10.8321 74.8781 10.7671 75.0081 10.6371C75.1468 10.5157 75.2161 10.3034 75.2161 10.0001V3.13606H76.7891V10.0911C76.7891 10.7931 76.6158 11.3044 76.2691 11.6251C75.9311 11.9544 75.4371 12.1191 74.7871 12.1191ZM75.1511 0.588057H76.8411V2.08306H75.1511V0.588057Z" fill="#BDA4EF"/>
<path d="M82.1339 8.79106C82.4545 8.79106 82.7405 8.73472 82.9919 8.62206C83.2519 8.50072 83.4729 8.34039 83.6549 8.14106C83.8369 7.94172 83.9755 7.71206 84.0709 7.45206C84.1662 7.18339 84.2139 6.90172 84.2139 6.60706V6.58106C84.2139 6.27772 84.1619 5.99172 84.0579 5.72306C83.9539 5.45439 83.8065 5.22039 83.6159 5.02106C83.4339 4.82172 83.2129 4.66572 82.9529 4.55306C82.7015 4.43172 82.4199 4.37106 82.1079 4.37106C81.7959 4.37106 81.5099 4.43172 81.2499 4.55306C80.9985 4.66572 80.7819 4.82172 80.5999 5.02106C80.4179 5.21172 80.2792 5.44139 80.1839 5.71006C80.0885 5.97872 80.0409 6.26039 80.0409 6.55506V6.58106C80.0409 6.88439 80.0929 7.17039 80.1969 7.43906C80.3009 7.69906 80.4439 7.93306 80.6259 8.14106C80.8165 8.34039 81.0375 8.50072 81.2889 8.62206C81.5489 8.73472 81.8305 8.79106 82.1339 8.79106ZM82.1079 10.1561C81.5879 10.1561 81.1025 10.0651 80.6519 9.88306C80.2099 9.69239 79.8242 9.43672 79.4949 9.11606C79.1742 8.79539 78.9229 8.41839 78.7409 7.98506C78.5589 7.55172 78.4679 7.09239 78.4679 6.60706V6.58106C78.4679 6.08706 78.5589 5.62339 78.7409 5.19006C78.9315 4.75672 79.1872 4.37972 79.5079 4.05906C79.8372 3.72972 80.2229 3.46972 80.6649 3.27906C81.1155 3.08839 81.6052 2.99306 82.1339 2.99306C82.6625 2.99306 83.1479 3.08839 83.5899 3.27906C84.0405 3.46106 84.4262 3.71672 84.7469 4.04606C85.0762 4.36672 85.3319 4.74372 85.5139 5.17706C85.6959 5.60172 85.7869 6.06106 85.7869 6.55506V6.58106C85.7869 7.06639 85.6915 7.52572 85.5009 7.95906C85.3189 8.39239 85.0632 8.77372 84.7339 9.10306C84.4132 9.42372 84.0275 9.67939 83.5769 9.87006C83.1262 10.0607 82.6365 10.1561 82.1079 10.1561Z" fill="#BDA4EF"/>
<path d="M86.7388 3.13606H88.4288L90.2748 8.18006L92.1338 3.13606H93.7848L90.9768 10.0521H89.5598L86.7388 3.13606Z" fill="#BDA4EF"/>
<path d="M99.8262 6.08706C99.8002 5.83572 99.7439 5.60172 99.6572 5.38506C99.5706 5.15972 99.4536 4.96906 99.3062 4.81306C99.1589 4.64839 98.9812 4.51839 98.7732 4.42306C98.5739 4.32772 98.3442 4.28006 98.0842 4.28006C97.5989 4.28006 97.1959 4.44906 96.8752 4.78706C96.5632 5.11639 96.3726 5.54972 96.3032 6.08706H99.8262ZM98.2662 10.1561C97.7722 10.1561 97.3086 10.0694 96.8752 9.89606C96.4506 9.72272 96.0779 9.48006 95.7572 9.16806C95.4452 8.85606 95.1982 8.48339 95.0162 8.05006C94.8342 7.60806 94.7432 7.12272 94.7432 6.59406V6.56806C94.7432 6.07406 94.8256 5.61039 94.9902 5.17706C95.1549 4.74372 95.3846 4.36672 95.6792 4.04606C95.9826 3.71672 96.3379 3.46106 96.7452 3.27906C97.1526 3.08839 97.6032 2.99306 98.0972 2.99306C98.6432 2.99306 99.1199 3.09272 99.5272 3.29206C99.9432 3.49139 100.286 3.76006 100.554 4.09806C100.832 4.43606 101.04 4.83039 101.178 5.28106C101.317 5.72306 101.386 6.19106 101.386 6.68506C101.386 6.75439 101.382 6.82806 101.373 6.90606C101.373 6.97539 101.369 7.04906 101.36 7.12706H96.3162C96.4029 7.69039 96.6239 8.12372 96.9792 8.42706C97.3432 8.72172 97.7809 8.86906 98.2922 8.86906C98.6822 8.86906 99.0202 8.79972 99.3062 8.66106C99.5922 8.52239 99.8739 8.31872 100.151 8.05006L101.074 8.86906C100.745 9.25906 100.351 9.57106 99.8912 9.80506C99.4406 10.0391 98.8989 10.1561 98.2662 10.1561Z" fill="#BDA4EF"/>
<path d="M102.966 3.13606H104.539V4.20206C104.652 4.03739 104.773 3.88572 104.903 3.74706C105.042 3.59972 105.198 3.46972 105.371 3.35706C105.553 3.24439 105.748 3.15772 105.956 3.09706C106.173 3.02772 106.415 2.99306 106.684 2.99306C107.464 2.99306 108.066 3.23139 108.491 3.70806C108.916 4.18472 109.128 4.82606 109.128 5.63206V10.0001H107.555V6.10006C107.555 5.56272 107.425 5.15106 107.165 4.86506C106.914 4.57039 106.554 4.42306 106.086 4.42306C105.627 4.42306 105.254 4.57472 104.968 4.87806C104.682 5.17272 104.539 5.58872 104.539 6.12606V10.0001H102.966V3.13606Z" fill="#BDA4EF"/>
<path d="M117.226 10.1171C116.94 10.1171 116.676 10.0824 116.433 10.0131C116.19 9.94372 115.978 9.83106 115.796 9.67506C115.623 9.51906 115.488 9.31539 115.393 9.06406C115.298 8.80406 115.25 8.48339 115.25 8.10206V4.48806H114.379V3.13606H115.25V1.25106H116.823V3.13606H118.669V4.48806H116.823V7.85506C116.823 8.15839 116.897 8.37939 117.044 8.51806C117.191 8.64806 117.399 8.71306 117.668 8.71306C118.006 8.71306 118.331 8.63506 118.643 8.47906V9.76606C118.444 9.87872 118.231 9.96539 118.006 10.0261C117.781 10.0867 117.521 10.1171 117.226 10.1171Z" fill="#BDA4EF"/>
<path d="M124.495 7.12706C124.296 7.04906 124.057 6.98406 123.78 6.93206C123.511 6.88006 123.225 6.85406 122.922 6.85406C122.428 6.85406 122.042 6.94939 121.765 7.14006C121.488 7.33072 121.349 7.59072 121.349 7.92006V7.94606C121.349 8.27539 121.475 8.52672 121.726 8.70006C121.986 8.87339 122.302 8.96006 122.675 8.96006C122.935 8.96006 123.173 8.92539 123.39 8.85606C123.615 8.78672 123.81 8.69139 123.975 8.57006C124.14 8.44006 124.265 8.28839 124.352 8.11506C124.447 7.93306 124.495 7.73372 124.495 7.51706V7.12706ZM124.456 10.0001V9.15506C124.222 9.43239 123.923 9.66639 123.559 9.85706C123.195 10.0477 122.753 10.1431 122.233 10.1431C121.904 10.1431 121.592 10.0954 121.297 10.0001C121.002 9.91339 120.742 9.78339 120.517 9.61006C120.3 9.42806 120.123 9.20706 119.984 8.94706C119.854 8.67839 119.789 8.37072 119.789 8.02406V7.99806C119.789 7.61672 119.858 7.28739 119.997 7.01006C120.136 6.72406 120.326 6.49006 120.569 6.30806C120.82 6.11739 121.115 5.97872 121.453 5.89206C121.8 5.79672 122.172 5.74906 122.571 5.74906C122.987 5.74906 123.338 5.77506 123.624 5.82706C123.919 5.87906 124.2 5.94839 124.469 6.03506V5.90506C124.469 5.42839 124.322 5.06439 124.027 4.81306C123.741 4.56172 123.325 4.43606 122.779 4.43606C122.389 4.43606 122.042 4.47506 121.739 4.55306C121.436 4.63106 121.128 4.73506 120.816 4.86506L120.387 3.60406C120.768 3.43072 121.158 3.29206 121.557 3.18806C121.956 3.08406 122.437 3.03206 123 3.03206C124.023 3.03206 124.781 3.28772 125.275 3.79906C125.769 4.30172 126.016 5.01239 126.016 5.93106V10.0001H124.456Z" fill="#BDA4EF"/>
<path d="M127.887 3.13606H129.46V4.17606C129.573 4.02006 129.694 3.87272 129.824 3.73406C129.954 3.59539 130.101 3.46972 130.266 3.35706C130.439 3.24439 130.63 3.15772 130.838 3.09706C131.055 3.02772 131.293 2.99306 131.553 2.99306C132.047 2.99306 132.463 3.10572 132.801 3.33106C133.148 3.54772 133.412 3.83806 133.594 4.20206C133.871 3.83806 134.196 3.54772 134.569 3.33106C134.95 3.10572 135.401 2.99306 135.921 2.99306C136.675 2.99306 137.264 3.22272 137.689 3.68206C138.114 4.13272 138.326 4.77839 138.326 5.61906V10.0001H136.753V6.10006C136.753 5.55406 136.632 5.13806 136.389 4.85206C136.146 4.56606 135.804 4.42306 135.362 4.42306C134.929 4.42306 134.573 4.57039 134.296 4.86506C134.027 5.15106 133.893 5.57139 133.893 6.12606V10.0001H132.32V6.08706C132.32 5.54972 132.199 5.13806 131.956 4.85206C131.713 4.56606 131.371 4.42306 130.929 4.42306C130.487 4.42306 130.132 4.57472 129.863 4.87806C129.594 5.18139 129.46 5.60172 129.46 6.13906V10.0001H127.887V3.13606Z" fill="#BDA4EF"/>
<path d="M143.775 8.77806C144.044 8.77806 144.295 8.72606 144.529 8.62206C144.772 8.51806 144.98 8.37506 145.153 8.19306C145.335 8.00239 145.478 7.77272 145.582 7.50406C145.686 7.22672 145.738 6.91906 145.738 6.58106V6.55506C145.738 6.22572 145.686 5.92672 145.582 5.65806C145.478 5.38072 145.335 5.14672 145.153 4.95606C144.98 4.76539 144.772 4.61806 144.529 4.51406C144.295 4.41006 144.044 4.35806 143.775 4.35806C143.507 4.35806 143.251 4.41006 143.008 4.51406C142.766 4.61806 142.553 4.76972 142.371 4.96906C142.189 5.15972 142.042 5.38939 141.929 5.65806C141.825 5.92672 141.773 6.22572 141.773 6.55506V6.58106C141.773 6.91039 141.825 7.21372 141.929 7.49106C142.042 7.75972 142.189 7.98939 142.371 8.18006C142.553 8.37072 142.766 8.51806 143.008 8.62206C143.251 8.72606 143.507 8.77806 143.775 8.77806ZM144.139 10.1431C143.576 10.1431 143.108 10.0217 142.735 9.77906C142.363 9.53639 142.055 9.25472 141.812 8.93406V10.0001H140.239V0.510057H141.812V4.28006C142.064 3.91606 142.376 3.61272 142.748 3.37006C143.121 3.11872 143.585 2.99306 144.139 2.99306C144.547 2.99306 144.941 3.07106 145.322 3.22706C145.704 3.38306 146.042 3.61272 146.336 3.91606C146.64 4.21939 146.882 4.59206 147.064 5.03406C147.246 5.47606 147.337 5.98306 147.337 6.55506V6.58106C147.337 7.15306 147.246 7.66006 147.064 8.10206C146.891 8.54406 146.653 8.91672 146.349 9.22006C146.055 9.52339 145.712 9.75306 145.322 9.90906C144.941 10.0651 144.547 10.1431 144.139 10.1431Z" fill="#BDA4EF"/>
<path d="M149.039 3.13606H150.612V10.0001H149.039V3.13606ZM148.974 0.588057H150.664V2.08306H148.974V0.588057Z" fill="#BDA4EF"/>
<path d="M156.295 0.133057L157.725 0.770057L156.139 2.26506H154.917L156.295 0.133057ZM157.374 6.08706C157.348 5.83572 157.292 5.60172 157.205 5.38506C157.118 5.15972 157.001 4.96906 156.854 4.81306C156.707 4.64839 156.529 4.51839 156.321 4.42306C156.122 4.32772 155.892 4.28006 155.632 4.28006C155.147 4.28006 154.744 4.44906 154.423 4.78706C154.111 5.11639 153.92 5.54972 153.851 6.08706H157.374ZM155.814 10.1561C155.32 10.1561 154.856 10.0694 154.423 9.89606C153.998 9.72272 153.626 9.48006 153.305 9.16806C152.993 8.85606 152.746 8.48339 152.564 8.05006C152.382 7.60806 152.291 7.12272 152.291 6.59406V6.56806C152.291 6.07406 152.373 5.61039 152.538 5.17706C152.703 4.74372 152.932 4.36672 153.227 4.04606C153.53 3.71672 153.886 3.46106 154.293 3.27906C154.7 3.08839 155.151 2.99306 155.645 2.99306C156.191 2.99306 156.668 3.09272 157.075 3.29206C157.491 3.49139 157.833 3.76006 158.102 4.09806C158.379 4.43606 158.587 4.83039 158.726 5.28106C158.865 5.72306 158.934 6.19106 158.934 6.68506C158.934 6.75439 158.93 6.82806 158.921 6.90606C158.921 6.97539 158.917 7.04906 158.908 7.12706H153.864C153.951 7.69039 154.172 8.12372 154.527 8.42706C154.891 8.72172 155.329 8.86906 155.84 8.86906C156.23 8.86906 156.568 8.79972 156.854 8.66106C157.14 8.52239 157.422 8.31872 157.699 8.05006L158.622 8.86906C158.293 9.25906 157.898 9.57106 157.439 9.80506C156.988 10.0391 156.447 10.1561 155.814 10.1561Z" fill="#BDA4EF"/>
<path d="M160.514 3.13606H162.087V4.20206C162.199 4.03739 162.321 3.88572 162.451 3.74706C162.589 3.59972 162.745 3.46972 162.919 3.35706C163.101 3.24439 163.296 3.15772 163.504 3.09706C163.72 3.02772 163.963 2.99306 164.232 2.99306C165.012 2.99306 165.614 3.23139 166.039 3.70806C166.463 4.18472 166.676 4.82606 166.676 5.63206V10.0001H165.103V6.10006C165.103 5.56272 164.973 5.15106 164.713 4.86506C164.461 4.57039 164.102 4.42306 163.634 4.42306C163.174 4.42306 162.802 4.57472 162.516 4.87806C162.23 5.17272 162.087 5.58872 162.087 6.12606V10.0001H160.514V3.13606Z" fill="#BDA4EF"/>
<path d="M38.2921 23.0871C38.2661 22.8357 38.2097 22.6017 38.1231 22.3851C38.0364 22.1597 37.9194 21.9691 37.7721 21.8131C37.6247 21.6484 37.4471 21.5184 37.2391 21.4231C37.0397 21.3277 36.8101 21.2801 36.5501 21.2801C36.0647 21.2801 35.6617 21.4491 35.3411 21.7871C35.0291 22.1164 34.8384 22.5497 34.7691 23.0871H38.2921ZM36.7321 27.1561C36.2381 27.1561 35.7744 27.0694 35.3411 26.8961C34.9164 26.7227 34.5437 26.4801 34.2231 26.1681C33.9111 25.8561 33.6641 25.4834 33.4821 25.0501C33.3001 24.6081 33.2091 24.1227 33.2091 23.5941V23.5681C33.2091 23.0741 33.2914 22.6104 33.4561 22.1771C33.6207 21.7437 33.8504 21.3667 34.1451 21.0461C34.4484 20.7167 34.8037 20.4611 35.2111 20.2791C35.6184 20.0884 36.0691 19.9931 36.5631 19.9931C37.1091 19.9931 37.5857 20.0927 37.9931 20.2921C38.4091 20.4914 38.7514 20.7601 39.0201 21.0981C39.2974 21.4361 39.5054 21.8304 39.6441 22.2811C39.7827 22.7231 39.8521 23.1911 39.8521 23.6851C39.8521 23.7544 39.8477 23.8281 39.8391 23.9061C39.8391 23.9754 39.8347 24.0491 39.8261 24.1271H34.7821C34.8687 24.6904 35.0897 25.1237 35.4451 25.4271C35.8091 25.7217 36.2467 25.8691 36.7581 25.8691C37.1481 25.8691 37.4861 25.7997 37.7721 25.6611C38.0581 25.5224 38.3397 25.3187 38.6171 25.0501L39.5401 25.8691C39.2107 26.2591 38.8164 26.5711 38.3571 26.8051C37.9064 27.0391 37.3647 27.1561 36.7321 27.1561Z" fill="#BDA4EF"/>
<path d="M43.7848 27.1301C43.2908 27.1301 42.7881 27.0434 42.2768 26.8701C41.7741 26.6967 41.3061 26.4411 40.8728 26.1031L41.5748 25.0371C41.9474 25.3144 42.3244 25.5267 42.7058 25.6741C43.0958 25.8127 43.4684 25.8821 43.8238 25.8821C44.1618 25.8821 44.4218 25.8171 44.6038 25.6871C44.7944 25.5484 44.8898 25.3664 44.8898 25.1411V25.1151C44.8898 24.9851 44.8464 24.8724 44.7598 24.7771C44.6818 24.6817 44.5691 24.5994 44.4218 24.5301C44.2831 24.4607 44.1184 24.3957 43.9278 24.3351C43.7458 24.2744 43.5551 24.2137 43.3558 24.1531C43.1044 24.0837 42.8488 24.0014 42.5888 23.9061C42.3374 23.8107 42.1078 23.6894 41.8998 23.5421C41.7004 23.3861 41.5358 23.1954 41.4058 22.9701C41.2758 22.7447 41.2108 22.4674 41.2108 22.1381V22.1121C41.2108 21.7914 41.2714 21.5011 41.3928 21.2411C41.5228 20.9811 41.6961 20.7601 41.9128 20.5781C42.1381 20.3961 42.3981 20.2574 42.6928 20.1621C42.9961 20.0667 43.3168 20.0191 43.6548 20.0191C44.0881 20.0191 44.5258 20.0884 44.9678 20.2271C45.4098 20.3657 45.8128 20.5564 46.1768 20.7991L45.5528 21.9171C45.2234 21.7177 44.8898 21.5617 44.5518 21.4491C44.2138 21.3277 43.9018 21.2671 43.6158 21.2671C43.3124 21.2671 43.0741 21.3321 42.9008 21.4621C42.7361 21.5921 42.6538 21.7567 42.6538 21.9561V21.9821C42.6538 22.1034 42.6971 22.2117 42.7838 22.3071C42.8704 22.3937 42.9831 22.4761 43.1218 22.5541C43.2691 22.6234 43.4338 22.6927 43.6158 22.7621C43.8064 22.8227 44.0014 22.8834 44.2008 22.9441C44.4521 23.0221 44.7034 23.1131 44.9548 23.2171C45.2061 23.3211 45.4314 23.4511 45.6308 23.6071C45.8388 23.7544 46.0078 23.9364 46.1378 24.1531C46.2678 24.3697 46.3328 24.6341 46.3328 24.9461V24.9721C46.3328 25.3361 46.2678 25.6524 46.1378 25.9211C46.0078 26.1897 45.8258 26.4151 45.5918 26.5971C45.3664 26.7704 45.0978 26.9047 44.7858 27.0001C44.4738 27.0867 44.1401 27.1301 43.7848 27.1301Z" fill="#BDA4EF"/>
<path d="M54.1822 27.1301C53.6882 27.1301 53.1856 27.0434 52.6742 26.8701C52.1716 26.6967 51.7036 26.4411 51.2702 26.1031L51.9722 25.0371C52.3449 25.3144 52.7219 25.5267 53.1032 25.6741C53.4932 25.8127 53.8659 25.8821 54.2212 25.8821C54.5592 25.8821 54.8192 25.8171 55.0012 25.6871C55.1919 25.5484 55.2872 25.3664 55.2872 25.1411V25.1151C55.2872 24.9851 55.2439 24.8724 55.1572 24.7771C55.0792 24.6817 54.9666 24.5994 54.8192 24.5301C54.6806 24.4607 54.5159 24.3957 54.3252 24.3351C54.1432 24.2744 53.9526 24.2137 53.7532 24.1531C53.5019 24.0837 53.2462 24.0014 52.9862 23.9061C52.7349 23.8107 52.5052 23.6894 52.2972 23.5421C52.0979 23.3861 51.9332 23.1954 51.8032 22.9701C51.6732 22.7447 51.6082 22.4674 51.6082 22.1381V22.1121C51.6082 21.7914 51.6689 21.5011 51.7902 21.2411C51.9202 20.9811 52.0936 20.7601 52.3102 20.5781C52.5356 20.3961 52.7956 20.2574 53.0902 20.1621C53.3936 20.0667 53.7142 20.0191 54.0522 20.0191C54.4856 20.0191 54.9232 20.0884 55.3652 20.2271C55.8072 20.3657 56.2102 20.5564 56.5742 20.7991L55.9502 21.9171C55.6209 21.7177 55.2872 21.5617 54.9492 21.4491C54.6112 21.3277 54.2992 21.2671 54.0132 21.2671C53.7099 21.2671 53.4716 21.3321 53.2982 21.4621C53.1336 21.5921 53.0512 21.7567 53.0512 21.9561V21.9821C53.0512 22.1034 53.0946 22.2117 53.1812 22.3071C53.2679 22.3937 53.3806 22.4761 53.5192 22.5541C53.6666 22.6234 53.8312 22.6927 54.0132 22.7621C54.2039 22.8227 54.3989 22.8834 54.5982 22.9441C54.8496 23.0221 55.1009 23.1131 55.3522 23.2171C55.6036 23.3211 55.8289 23.4511 56.0282 23.6071C56.2362 23.7544 56.4052 23.9364 56.5352 24.1531C56.6652 24.3697 56.7302 24.6341 56.7302 24.9461V24.9721C56.7302 25.3361 56.6652 25.6524 56.5352 25.9211C56.4052 26.1897 56.2232 26.4151 55.9892 26.5971C55.7639 26.7704 55.4952 26.9047 55.1832 27.0001C54.8712 27.0867 54.5376 27.1301 54.1822 27.1301Z" fill="#BDA4EF"/>
<path d="M63.0352 23.0871C63.0092 22.8357 62.9529 22.6017 62.8662 22.3851C62.7796 22.1597 62.6626 21.9691 62.5152 21.8131C62.3679 21.6484 62.1902 21.5184 61.9822 21.4231C61.7829 21.3277 61.5532 21.2801 61.2932 21.2801C60.8079 21.2801 60.4049 21.4491 60.0842 21.7871C59.7722 22.1164 59.5816 22.5497 59.5122 23.0871H63.0352ZM61.4752 27.1561C60.9812 27.1561 60.5176 27.0694 60.0842 26.8961C59.6596 26.7227 59.2869 26.4801 58.9662 26.1681C58.6542 25.8561 58.4072 25.4834 58.2252 25.0501C58.0432 24.6081 57.9522 24.1227 57.9522 23.5941V23.5681C57.9522 23.0741 58.0346 22.6104 58.1992 22.1771C58.3639 21.7437 58.5936 21.3667 58.8882 21.0461C59.1916 20.7167 59.5469 20.4611 59.9542 20.2791C60.3616 20.0884 60.8122 19.9931 61.3062 19.9931C61.8522 19.9931 62.3289 20.0927 62.7362 20.2921C63.1522 20.4914 63.4946 20.7601 63.7632 21.0981C64.0406 21.4361 64.2486 21.8304 64.3872 22.2811C64.5259 22.7231 64.5952 23.1911 64.5952 23.6851C64.5952 23.7544 64.5909 23.8281 64.5822 23.9061C64.5822 23.9754 64.5779 24.0491 64.5692 24.1271H59.5252C59.6119 24.6904 59.8329 25.1237 60.1882 25.4271C60.5522 25.7217 60.9899 25.8691 61.5012 25.8691C61.8912 25.8691 62.2292 25.7997 62.5152 25.6611C62.8012 25.5224 63.0829 25.3187 63.3602 25.0501L64.2832 25.8691C63.9539 26.2591 63.5596 26.5711 63.1002 26.8051C62.6496 27.0391 62.1079 27.1561 61.4752 27.1561Z" fill="#BDA4EF"/>
<path d="M66.1749 20.1361H67.7479V21.6831C67.9646 21.1631 68.2723 20.7471 68.6709 20.4351C69.0696 20.1231 69.5723 19.9801 70.1789 20.0061V21.6701H70.0879C69.7413 21.6701 69.4249 21.7264 69.1389 21.8391C68.8529 21.9517 68.6059 22.1207 68.3979 22.3461C68.1899 22.5714 68.0296 22.8574 67.9169 23.2041C67.8043 23.5421 67.7479 23.9364 67.7479 24.3871V27.0001H66.1749V20.1361Z" fill="#BDA4EF"/>
<path d="M77.7955 27.1301C77.3015 27.1301 76.7988 27.0434 76.2875 26.8701C75.7848 26.6967 75.3168 26.4411 74.8835 26.1031L75.5855 25.0371C75.9582 25.3144 76.3352 25.5267 76.7165 25.6741C77.1065 25.8127 77.4792 25.8821 77.8345 25.8821C78.1725 25.8821 78.4325 25.8171 78.6145 25.6871C78.8052 25.5484 78.9005 25.3664 78.9005 25.1411V25.1151C78.9005 24.9851 78.8572 24.8724 78.7705 24.7771C78.6925 24.6817 78.5798 24.5994 78.4325 24.5301C78.2938 24.4607 78.1292 24.3957 77.9385 24.3351C77.7565 24.2744 77.5658 24.2137 77.3665 24.1531C77.1152 24.0837 76.8595 24.0014 76.5995 23.9061C76.3482 23.8107 76.1185 23.6894 75.9105 23.5421C75.7112 23.3861 75.5465 23.1954 75.4165 22.9701C75.2865 22.7447 75.2215 22.4674 75.2215 22.1381V22.1121C75.2215 21.7914 75.2822 21.5011 75.4035 21.2411C75.5335 20.9811 75.7068 20.7601 75.9235 20.5781C76.1488 20.3961 76.4088 20.2574 76.7035 20.1621C77.0068 20.0667 77.3275 20.0191 77.6655 20.0191C78.0988 20.0191 78.5365 20.0884 78.9785 20.2271C79.4205 20.3657 79.8235 20.5564 80.1875 20.7991L79.5635 21.9171C79.2342 21.7177 78.9005 21.5617 78.5625 21.4491C78.2245 21.3277 77.9125 21.2671 77.6265 21.2671C77.3232 21.2671 77.0848 21.3321 76.9115 21.4621C76.7468 21.5921 76.6645 21.7567 76.6645 21.9561V21.9821C76.6645 22.1034 76.7078 22.2117 76.7945 22.3071C76.8812 22.3937 76.9938 22.4761 77.1325 22.5541C77.2798 22.6234 77.4445 22.6927 77.6265 22.7621C77.8172 22.8227 78.0122 22.8834 78.2115 22.9441C78.4628 23.0221 78.7142 23.1131 78.9655 23.2171C79.2168 23.3211 79.4422 23.4511 79.6415 23.6071C79.8495 23.7544 80.0185 23.9364 80.1485 24.1531C80.2785 24.3697 80.3435 24.6341 80.3435 24.9461V24.9721C80.3435 25.3361 80.2785 25.6524 80.1485 25.9211C80.0185 26.1897 79.8365 26.4151 79.6025 26.5971C79.3772 26.7704 79.1085 26.9047 78.7965 27.0001C78.4845 27.0867 78.1508 27.1301 77.7955 27.1301Z" fill="#BDA4EF"/>
<path d="M85.2315 25.7911C85.5522 25.7911 85.8382 25.7347 86.0895 25.6221C86.3495 25.5007 86.5705 25.3404 86.7525 25.1411C86.9345 24.9417 87.0732 24.7121 87.1685 24.4521C87.2638 24.1834 87.3115 23.9017 87.3115 23.6071V23.5811C87.3115 23.2777 87.2595 22.9917 87.1555 22.7231C87.0515 22.4544 86.9042 22.2204 86.7135 22.0211C86.5315 21.8217 86.3105 21.6657 86.0505 21.5531C85.7992 21.4317 85.5175 21.3711 85.2055 21.3711C84.8935 21.3711 84.6075 21.4317 84.3475 21.5531C84.0962 21.6657 83.8795 21.8217 83.6975 22.0211C83.5155 22.2117 83.3768 22.4414 83.2815 22.7101C83.1862 22.9787 83.1385 23.2604 83.1385 23.5551V23.5811C83.1385 23.8844 83.1905 24.1704 83.2945 24.4391C83.3985 24.6991 83.5415 24.9331 83.7235 25.1411C83.9142 25.3404 84.1352 25.5007 84.3865 25.6221C84.6465 25.7347 84.9282 25.7911 85.2315 25.7911ZM85.2055 27.1561C84.6855 27.1561 84.2002 27.0651 83.7495 26.8831C83.3075 26.6924 82.9218 26.4367 82.5925 26.1161C82.2718 25.7954 82.0205 25.4184 81.8385 24.9851C81.6565 24.5517 81.5655 24.0924 81.5655 23.6071V23.5811C81.5655 23.0871 81.6565 22.6234 81.8385 22.1901C82.0292 21.7567 82.2848 21.3797 82.6055 21.0591C82.9348 20.7297 83.3205 20.4697 83.7625 20.2791C84.2132 20.0884 84.7028 19.9931 85.2315 19.9931C85.7602 19.9931 86.2455 20.0884 86.6875 20.2791C87.1382 20.4611 87.5238 20.7167 87.8445 21.0461C88.1738 21.3667 88.4295 21.7437 88.6115 22.1771C88.7935 22.6017 88.8845 23.0611 88.8845 23.5551V23.5811C88.8845 24.0664 88.7892 24.5257 88.5985 24.9591C88.4165 25.3924 88.1608 25.7737 87.8315 26.1031C87.5108 26.4237 87.1252 26.6794 86.6745 26.8701C86.2238 27.0607 85.7342 27.1561 85.2055 27.1561Z" fill="#BDA4EF"/>
<path d="M90.5775 17.5101H92.1505V27.0001H90.5775V17.5101Z" fill="#BDA4EF"/>
<path d="M94.2972 20.1361H95.8702V27.0001H94.2972V20.1361ZM94.2322 17.5881H95.9222V19.0831H94.2322V17.5881Z" fill="#BDA4EF"/>
<path d="M101.137 25.7781C101.397 25.7781 101.648 25.7261 101.891 25.6221C102.134 25.5181 102.346 25.3707 102.528 25.1801C102.71 24.9807 102.853 24.7467 102.957 24.4781C103.07 24.2094 103.126 23.9104 103.126 23.5811V23.5551C103.126 23.2257 103.07 22.9267 102.957 22.6581C102.853 22.3807 102.71 22.1467 102.528 21.9561C102.346 21.7654 102.134 21.6181 101.891 21.5141C101.648 21.4101 101.397 21.3581 101.137 21.3581C100.868 21.3581 100.613 21.4101 100.37 21.5141C100.136 21.6094 99.9279 21.7524 99.7459 21.9431C99.5639 22.1337 99.4209 22.3677 99.3169 22.6451C99.2129 22.9137 99.1609 23.2171 99.1609 23.5551V23.5811C99.1609 23.9104 99.2129 24.2137 99.3169 24.4911C99.4209 24.7597 99.5639 24.9894 99.7459 25.1801C99.9279 25.3707 100.136 25.5181 100.37 25.6221C100.613 25.7261 100.868 25.7781 101.137 25.7781ZM100.76 27.1431C100.353 27.1431 99.9582 27.0651 99.5769 26.9091C99.1956 26.7531 98.8576 26.5234 98.5629 26.2201C98.2682 25.9167 98.0299 25.5441 97.8479 25.1021C97.6659 24.6601 97.5749 24.1531 97.5749 23.5811V23.5551C97.5749 22.9831 97.6616 22.4761 97.8349 22.0341C98.0169 21.5921 98.2552 21.2194 98.5499 20.9161C98.8446 20.6127 99.1826 20.3831 99.5639 20.2271C99.9539 20.0711 100.353 19.9931 100.76 19.9931C101.323 19.9931 101.791 20.1144 102.164 20.3571C102.537 20.5997 102.849 20.8814 103.1 21.2021V17.5101H104.673V27.0001H103.1V25.8561C102.849 26.2114 102.532 26.5147 102.151 26.7661C101.778 27.0174 101.315 27.1431 100.76 27.1431Z" fill="#BDA4EF"/>
<path d="M110.873 24.1271C110.674 24.0491 110.435 23.9841 110.158 23.9321C109.889 23.8801 109.603 23.8541 109.3 23.8541C108.806 23.8541 108.42 23.9494 108.143 24.1401C107.866 24.3307 107.727 24.5907 107.727 24.9201V24.9461C107.727 25.2754 107.853 25.5267 108.104 25.7001C108.364 25.8734 108.68 25.9601 109.053 25.9601C109.313 25.9601 109.551 25.9254 109.768 25.8561C109.993 25.7867 110.188 25.6914 110.353 25.5701C110.518 25.4401 110.643 25.2884 110.73 25.1151C110.825 24.9331 110.873 24.7337 110.873 24.5171V24.1271ZM110.834 27.0001V26.1551C110.6 26.4324 110.301 26.6664 109.937 26.8571C109.573 27.0477 109.131 27.1431 108.611 27.1431C108.282 27.1431 107.97 27.0954 107.675 27.0001C107.38 26.9134 107.12 26.7834 106.895 26.6101C106.678 26.4281 106.501 26.2071 106.362 25.9471C106.232 25.6784 106.167 25.3707 106.167 25.0241V24.9981C106.167 24.6167 106.236 24.2874 106.375 24.0101C106.514 23.7241 106.704 23.4901 106.947 23.3081C107.198 23.1174 107.493 22.9787 107.831 22.8921C108.178 22.7967 108.55 22.7491 108.949 22.7491C109.365 22.7491 109.716 22.7751 110.002 22.8271C110.297 22.8791 110.578 22.9484 110.847 23.0351V22.9051C110.847 22.4284 110.7 22.0644 110.405 21.8131C110.119 21.5617 109.703 21.4361 109.157 21.4361C108.767 21.4361 108.42 21.4751 108.117 21.5531C107.814 21.6311 107.506 21.7351 107.194 21.8651L106.765 20.6041C107.146 20.4307 107.536 20.2921 107.935 20.1881C108.334 20.0841 108.815 20.0321 109.378 20.0321C110.401 20.0321 111.159 20.2877 111.653 20.7991C112.147 21.3017 112.394 22.0124 112.394 22.9311V27.0001H110.834Z" fill="#BDA4EF"/>
<path d="M114.265 20.1361H115.838V21.6831C116.054 21.1631 116.362 20.7471 116.761 20.4351C117.159 20.1231 117.662 19.9801 118.269 20.0061V21.6701H118.178C117.831 21.6701 117.515 21.7264 117.229 21.8391C116.943 21.9517 116.696 22.1207 116.488 22.3461C116.28 22.5714 116.119 22.8574 116.007 23.2041C115.894 23.5421 115.838 23.9364 115.838 24.3871V27.0001H114.265V20.1361Z" fill="#BDA4EF"/>
<path d="M119.726 20.1361H121.299V27.0001H119.726V20.1361ZM119.661 17.5881H121.351V19.0831H119.661V17.5881Z" fill="#BDA4EF"/>
<path d="M126.644 25.7911C126.964 25.7911 127.25 25.7347 127.502 25.6221C127.762 25.5007 127.983 25.3404 128.165 25.1411C128.347 24.9417 128.485 24.7121 128.581 24.4521C128.676 24.1834 128.724 23.9017 128.724 23.6071V23.5811C128.724 23.2777 128.672 22.9917 128.568 22.7231C128.464 22.4544 128.316 22.2204 128.126 22.0211C127.944 21.8217 127.723 21.6657 127.463 21.5531C127.211 21.4317 126.93 21.3711 126.618 21.3711C126.306 21.3711 126.02 21.4317 125.76 21.5531C125.508 21.6657 125.292 21.8217 125.11 22.0211C124.928 22.2117 124.789 22.4414 124.694 22.7101C124.598 22.9787 124.551 23.2604 124.551 23.5551V23.5811C124.551 23.8844 124.603 24.1704 124.707 24.4391C124.811 24.6991 124.954 24.9331 125.136 25.1411C125.326 25.3404 125.547 25.5007 125.799 25.6221C126.059 25.7347 126.34 25.7911 126.644 25.7911ZM126.618 27.1561C126.098 27.1561 125.612 27.0651 125.162 26.8831C124.72 26.6924 124.334 26.4367 124.005 26.1161C123.684 25.7954 123.433 25.4184 123.251 24.9851C123.069 24.5517 122.978 24.0924 122.978 23.6071V23.5811C122.978 23.0871 123.069 22.6234 123.251 22.1901C123.441 21.7567 123.697 21.3797 124.018 21.0591C124.347 20.7297 124.733 20.4697 125.175 20.2791C125.625 20.0884 126.115 19.9931 126.644 19.9931C127.172 19.9931 127.658 20.0884 128.1 20.2791C128.55 20.4611 128.936 20.7167 129.257 21.0461C129.586 21.3667 129.842 21.7437 130.024 22.1771C130.206 22.6017 130.297 23.0611 130.297 23.5551V23.5811C130.297 24.0664 130.201 24.5257 130.011 24.9591C129.829 25.3924 129.573 25.7737 129.244 26.1031C128.923 26.4237 128.537 26.6794 128.087 26.8701C127.636 27.0607 127.146 27.1561 126.618 27.1561Z" fill="#BDA4EF"/>
<path d="M131.795 25.2191H133.524V27.0001H131.795V25.2191Z" fill="#BDA4EF"/>
</svg>
