<svg width="31" height="16" viewBox="0 0 31 16" fill="none" xmlns="http://www.w3.org/2000/svg">
<path d="M1.38158 15.9868C0.986842 15.9868 0.592105 15.9868 0.394736 15.5921C-3.82332e-07 15.1974 0 15 0 14.6053C0 14.2105 -3.82332e-07 13.8158 0.394736 13.6184L13.2237 0.789474C13.4211 0.592105 13.8158 0.394737 14.2105 0.197368C14.6053 0.197368 14.8026 0 15.1974 0C15.5921 0 15.7895 -1.91166e-07 16.1842 0.197368C16.5789 0.197368 16.7763 0.592105 17.1711 0.789474L30 13.6184C30.3947 14.0132 30.3947 14.2105 30.3947 14.6053C30.3947 15 30.3947 15.3947 30 15.5921C29.6053 15.7895 29.4079 15.9868 29.0132 15.9868C28.6184 15.9868 28.2237 15.9868 28.0263 15.5921L15.3947 2.96053L2.76316 15.5921C2.56579 15.7895 2.17105 15.9868 1.77632 15.9868H1.38158Z" fill="white"/>
</svg>
