<svg width="7" height="12" viewBox="0 0 7 12" fill="none" xmlns="http://www.w3.org/2000/svg">
<path d="M4.93359 5.6545L0.708607 1.39653C0.5649 1.2517 0.495442 1.08032 0.500232 0.882388C0.505022 0.684455 0.579271 0.513074 0.722978 0.368245C0.866685 0.223416 1.03674 0.151001 1.23314 0.151001C1.42954 0.151001 1.59959 0.223416 1.7433 0.368245L6.1551 4.82898C6.27007 4.94484 6.35629 5.07519 6.41378 5.22002C6.47126 5.36485 6.5 5.50968 6.5 5.6545C6.5 5.79933 6.47126 5.94416 6.41378 6.08899C6.35629 6.23382 6.27007 6.36417 6.1551 6.48003L1.72893 10.9408C1.58522 11.0856 1.41756 11.1556 1.22595 11.1508C1.03434 11.1459 0.866685 11.0711 0.722978 10.9263C0.579271 10.7815 0.507417 10.6101 0.507417 10.4121C0.507417 10.2142 0.579271 10.0428 0.722978 9.898L4.93359 5.6545Z" fill="white"/>
</svg>
